<?xml version="1.0" encoding="UTF-8"?>
<svg width="15px" height="27px" viewBox="0 0 15 27" version="1.1" xmlns="http://www.w3.org/2000/svg" xmlns:xlink="http://www.w3.org/1999/xlink">
    <!-- Generator: Sketch 55 (78076) - https://sketchapp.com -->
    <title>facebook-logo (1)</title>
    <desc>Created with Sketch.</desc>
    <g id="Desktop" stroke="none" stroke-width="1" fill="none" fill-rule="evenodd">
        <g id="Sign-up" transform="translate(-565.000000, -246.000000)" fill="#FFFFFF" fill-rule="nonzero">
            <g id="facebook-logo-(1)" transform="translate(565.000000, 246.000000)">
                <path d="M14.1761321,0.00556701031 L10.6483019,0 C6.68490566,0 4.12358491,2.58448454 4.12358491,6.58465979 L4.12358491,9.62062887 L0.576509434,9.62062887 C0.27,9.62062887 0.0217924528,9.86502062 0.0217924528,10.1664742 L0.0217924528,14.5652474 C0.0217924528,14.866701 0.270283019,15.1108144 0.576509434,15.1108144 L4.12358491,15.1108144 L4.12358491,26.2103196 C4.12358491,26.5117732 4.37179245,26.7558866 4.67830189,26.7558866 L9.30622642,26.7558866 C9.61273585,26.7558866 9.8609434,26.5114948 9.8609434,26.2103196 L9.8609434,15.1108144 L14.0083019,15.1108144 C14.3148113,15.1108144 14.5630189,14.866701 14.5630189,14.5652474 L14.564717,10.1664742 C14.564717,10.021732 14.5061321,9.8831134 14.4022642,9.78068041 C14.2983962,9.67824742 14.1568868,9.62062887 14.009717,9.62062887 L9.8609434,9.62062887 L9.8609434,7.047 C9.8609434,5.81001031 10.1606604,5.18205155 11.7990566,5.18205155 L14.175566,5.18121649 C14.4817925,5.18121649 14.73,4.93682474 14.73,4.63564948 L14.73,0.551134021 C14.73,0.250237113 14.4820755,0.00612371134 14.1761321,0.00556701031 Z" id="Path"></path>
            </g>
        </g>
    </g>
</svg>