<?xml version="1.0" encoding="UTF-8"?>
<svg width="27px" height="27px" viewBox="0 0 27 27" version="1.1" xmlns="http://www.w3.org/2000/svg" xmlns:xlink="http://www.w3.org/1999/xlink">
    <!-- Generator: Sketch 55 (78076) - https://sketchapp.com -->
    <title>search</title>
    <desc>Created with Sketch.</desc>
    <g id="Desktop" stroke="none" stroke-width="1" fill="none" fill-rule="evenodd">
        <g id="Sign-up" transform="translate(-559.000000, -312.000000)" fill-rule="nonzero">
            <g id="search" transform="translate(559.000000, 312.000000)">
                <path d="M5.98376953,16.3164375 L5.0439375,19.8249609 L1.60887305,19.8976289 C0.582292969,17.9935488 0,15.8150391 0,13.5 C0,11.261373 0.544429688,9.15031055 1.50946875,7.29147656 L1.51020703,7.29147656 L4.56837891,7.85214844 L5.90804297,10.8919688 C5.6276543,11.7094043 5.47483008,12.5869043 5.47483008,13.5 C5.47493555,14.4909844 5.65444336,15.4404668 5.98376953,16.3164375 Z" id="Path" fill="#FBBB00"></path>
                <path d="M26.7641191,10.9780313 C26.9191582,11.7946758 27,12.6380566 27,13.5 C27,14.4665156 26.8983809,15.4093008 26.704793,16.3187051 C26.0476172,19.4133164 24.3304277,22.1155313 21.9516328,24.0277852 L21.9508945,24.0270469 L18.0989648,23.8305059 L17.5537969,20.427293 C19.1322422,19.5015938 20.3658047,18.0529277 21.0155977,16.3187051 L13.7967891,16.3187051 L13.7967891,10.9780313 L21.1209082,10.9780313 L26.7641191,10.9780313 L26.7641191,10.9780313 Z" id="Path" fill="#518EF8"></path>
                <path d="M21.9508418,24.0270469 L21.9515801,24.0277852 C19.6380703,25.8873574 16.6991836,27 13.5,27 C8.35887305,27 3.88905469,24.1264512 1.60887305,19.8976816 L5.98376953,16.3164902 C7.12383398,19.3591582 10.0589766,21.5251172 13.5,21.5251172 C14.979041,21.5251172 16.3646895,21.1252852 17.5536914,20.427293 L21.9508418,24.0270469 Z" id="Path" fill="#28B446"></path>
                <path d="M22.1170078,3.10795312 L17.7435879,6.68840625 C16.5130313,5.91922266 15.0584063,5.47488281 13.5,5.47488281 C9.98108789,5.47488281 6.99104883,7.74019336 5.9080957,10.8919688 L1.51020703,7.29147656 L1.50946875,7.29147656 C3.75626953,2.95961133 8.28246094,0 13.5,0 C16.7755957,0 19.7789766,1.16680078 22.1170078,3.10795312 Z" id="Path" fill="#F14336"></path>
            </g>
        </g>
    </g>
</svg>