<?xml version="1.0" encoding="UTF-8"?>
<svg width="58px" height="58px" viewBox="0 0 58 58" version="1.1" xmlns="http://www.w3.org/2000/svg" xmlns:xlink="http://www.w3.org/1999/xlink">
    <!-- Generator: Sketch 55 (78076) - https://sketchapp.com -->
    <title>Group 3</title>
    <desc>Created with Sketch.</desc>
    <g id="Desktop" stroke="none" stroke-width="1" fill="none" fill-rule="evenodd">
        <g id="Massage" transform="translate(-424.000000, -146.000000)">
            <g id="Group-3" transform="translate(424.000000, 146.000000)">
                <g id="Group-2">
                    <circle id="Oval" fill="#F7B300" cx="29" cy="29" r="29"></circle>
                    <path d="M39.6066406,32.3933594 C37.9728711,30.7596484 36.0282617,29.5502148 33.906582,28.8180859 C36.1789648,27.2529883 37.671875,24.6336719 37.671875,21.671875 C37.671875,16.8902148 33.7816602,13 29,13 C24.2183398,13 20.328125,16.8902148 20.328125,21.671875 C20.328125,24.6336719 21.8210352,27.2529883 24.0934766,28.8180859 C21.9717969,29.5502148 20.0271875,30.7596484 18.393418,32.3933594 C15.560293,35.226543 14,38.9933594 14,43 L16.34375,43 C16.34375,36.0213086 22.0213086,30.34375 29,30.34375 C35.9786914,30.34375 41.65625,36.0213086 41.65625,43 L44,43 C44,38.9933594 42.439707,35.226543 39.6066406,32.3933594 Z M29,28 C25.5106836,28 22.671875,25.16125 22.671875,21.671875 C22.671875,18.1825 25.5106836,15.34375 29,15.34375 C32.4893164,15.34375 35.328125,18.1825 35.328125,21.671875 C35.328125,25.16125 32.4893164,28 29,28 Z" id="Shape" fill="#FFFFFF" fill-rule="nonzero"></path>
                </g>
                <g id="user" transform="translate(14.000000, 13.000000)"></g>
            </g>
        </g>
    </g>
</svg>