<?xml version="1.0" encoding="UTF-8"?>
<svg width="20px" height="20px" viewBox="0 0 20 20" version="1.1" xmlns="http://www.w3.org/2000/svg" xmlns:xlink="http://www.w3.org/1999/xlink">
    <!-- Generator: Sketch 55 (78076) - https://sketchapp.com -->
    <title>outline-chat-24px</title>
    <desc>Created with Sketch.</desc>
    <g id="Desktop" stroke="none" stroke-width="1" fill="none" fill-rule="evenodd">
        <g id="History" transform="translate(-1042.000000, -356.000000)">
            <g id="outline-chat-24px" transform="translate(1040.000000, 354.000000)">
                <polygon id="Path" points="0 0 24 0 24 24 0 24"></polygon>
                <path d="M4,4 L20,4 L20,16 L5.17,16 L4,17.17 L4,4 L4,4 Z M4,2 C2.9,2 2.01,2.9 2.01,4 L2,22 L6,18 L20,18 C21.1,18 22,17.1 22,16 L22,4 C22,2.9 21.1,2 20,2 L4,2 Z M6,12 L14,12 L14,14 L6,14 L6,12 Z M6,9 L18,9 L18,11 L6,11 L6,9 Z M6,6 L18,6 L18,8 L6,8 L6,6 Z" id="Shape" fill="#000000" fill-rule="nonzero"></path>
            </g>
        </g>
    </g>
</svg>