<?xml version="1.0" encoding="UTF-8"?>
<svg width="44px" height="44px" viewBox="0 0 44 44" version="1.1" xmlns="http://www.w3.org/2000/svg" xmlns:xlink="http://www.w3.org/1999/xlink">
    <!-- Generator: Sketch 55 (78076) - https://sketchapp.com -->
    <title>outline-call-24px</title>
    <desc>Created with Sketch.</desc>
    <g id="Desktop" stroke="none" stroke-width="1" fill="none" fill-rule="evenodd">
        <g id="car-detail" transform="translate(-1119.000000, -970.000000)">
            <g id="outline-call-24px" transform="translate(1119.684682, 970.576261)">
                <polygon id="Path" points="11 10 35 10 35 34 11 34"></polygon>
                <circle id="Oval-Copy" fill="#00B900" cx="21.5" cy="21.5" r="21.5"></circle>
                <path d="M21.4998802,10 C28.3927384,10 34,14.3937832 34,19.7945041 C34,21.9559955 33.1323122,23.902541 31.3212146,25.8206275 C28.6987415,28.7352398 22.8341209,32.2852038 21.4998802,32.8280061 C20.1661187,33.3708083 20.3628522,32.4825654 20.4172474,32.1773837 C20.448878,31.9959868 20.5955295,31.1443009 20.5955295,31.1443009 C20.6377038,30.8361114 20.6813158,30.3580936 20.5552723,30.0529119 C20.4150907,29.7169576 19.8610741,29.542502 19.4539486,29.4578193 C13.4469898,28.6910474 9,24.6362264 9,19.7945041 C9,14.3937832 14.6079805,10 21.4998802,10 Z M18.0252322,17.2285714 C17.8920439,17.2285714 17.7837838,17.3372636 17.7837838,17.4707996 L17.7837838,22.900629 C17.7837838,23.0344039 17.8920439,23.1428571 18.0252322,23.1428571 L18.8939241,23.1428571 C19.0271125,23.1428571 19.1351351,23.0344039 19.1351351,22.900629 L19.1351351,17.4707996 C19.1351351,17.3372636 19.0271125,17.2285714 18.8939241,17.2285714 L18.0252322,17.2285714 Z M24.0478109,17.2285714 C23.9076022,17.2285714 23.7938858,17.3372636 23.7938858,17.4707996 L23.7938858,20.6966868 L21.1906538,17.336308 C21.1846555,17.3277082 21.1779075,17.3195862 21.1709096,17.311703 C21.1641616,17.3047754 21.159163,17.2999977 21.1539146,17.29522 C21.1524151,17.2937867 21.1509155,17.2925923 21.149166,17.291159 C21.1449172,17.2873368 21.1404186,17.2837536 21.13567,17.2804092 C21.1336705,17.2784981 21.1314212,17.2770648 21.1291719,17.2753927 C21.1246732,17.2725261 21.1204245,17.2694205 21.1159258,17.2667928 C21.1134266,17.2651207 21.1109273,17.2636874 21.1081781,17.2624929 C21.1036794,17.2598652 21.0991807,17.2572375 21.0946821,17.2550875 C21.0919329,17.2538931 21.0894336,17.2524598 21.0866845,17.2515043 C21.0819358,17.2493543 21.0771872,17.2472044 21.0721887,17.2455322 C21.0691896,17.2445767 21.0666903,17.2436211 21.0639411,17.2426656 C21.0589426,17.2409934 21.0539441,17.2393212 21.0486956,17.2381268 C21.0459464,17.2371713 21.0429473,17.2366934 21.0399482,17.235738 C21.0349497,17.2347824 21.0302011,17.233588 21.0254525,17.2326324 C21.0219535,17.2321547 21.0182047,17.2316769 21.0147057,17.231438 C21.010207,17.2304825 21.0057083,17.2302436 21.0012097,17.2297658 C20.9969609,17.2292881 20.9927122,17.2292881 20.9882134,17.2290492 C20.9849645,17.2290492 20.9824652,17.2285714 20.9792161,17.2285714 L20.0649858,17.2285714 C19.9247772,17.2285714 19.8108108,17.3372636 19.8108108,17.4707996 L19.8108108,22.900629 C19.8108108,23.0344039 19.9247772,23.1428571 20.0649858,23.1428571 L20.9792161,23.1428571 C21.1196747,23.1428571 21.2333911,23.0344039 21.2333911,22.900629 L21.2333911,19.6756973 L23.8398722,23.040376 C23.857867,23.0647421 23.8801103,23.0845695 23.9043532,23.1003358 C23.9121009,23.1053524 23.9173494,23.1084579 23.9225978,23.1113245 C23.9335946,23.1170577 23.9378433,23.1189687 23.9418422,23.1206409 C23.9460909,23.1223131 23.9498398,23.1239853 23.9543384,23.1256575 C23.9568377,23.126613 23.959337,23.1275686 23.9618363,23.1282852 C23.9678345,23.1304352 23.9733328,23.1321074 23.9790811,23.1337796 C23.9803308,23.1337796 23.9815804,23.1342573 23.9828301,23.1344962 C24.0035739,23.1397517 24.0253175,23.1428571 24.0478109,23.1428571 L24.9622911,23.1428571 C25.1027497,23.1428571 25.2162162,23.0344039 25.2162162,22.900629 L25.2162162,17.4707996 C25.2162162,17.3372636 25.1027497,17.2285714 24.9622911,17.2285714 L24.0478109,17.2285714 Z M16.861168,21.7831853 L14.4399868,21.7831853 L14.4399868,17.4712676 C14.4399868,17.3372592 14.3291803,17.2285714 14.1928032,17.2285714 L13.3014811,17.2285714 C13.1648605,17.2285714 13.0540541,17.3372592 13.0540541,17.4712676 L13.0540541,22.8999221 L13.0540541,22.9003999 C13.0540541,22.9656125 13.0805989,23.0246144 13.1232168,23.0680895 C13.1241909,23.0692839 13.125165,23.0704782 13.1266261,23.0716727 C13.1278439,23.072867 13.1290615,23.0738225 13.1302791,23.0750169 C13.1748452,23.1170587 13.2347538,23.1428571 13.3012376,23.1428571 L16.861168,23.1428571 C16.9977887,23.1428571 17.1081081,23.0339305 17.1081081,22.8999221 L17.1081081,22.0258815 C17.1081081,21.8918731 16.9977887,21.7831853 16.861168,21.7831853 Z M29.6990059,18.5882432 C29.8356266,18.5882432 29.9459459,18.4797944 29.9459459,18.345547 L29.9459459,17.4715065 C29.9459459,17.337498 29.8356266,17.2285714 29.6990059,17.2285714 L26.139319,17.2285714 L26.138832,17.2285714 C26.0721045,17.2285714 26.0119525,17.2548476 25.9673864,17.2971283 C25.9664122,17.2980838 25.9651946,17.2988004 25.964464,17.2997559 C25.9630028,17.3011892 25.9617852,17.3026224 25.9605675,17.3040557 C25.9181932,17.3475308 25.8918919,17.4062938 25.8918919,17.4712676 L25.8918919,17.4715065 L25.8918919,22.900161 L25.8918919,22.9003999 C25.8918919,22.9656125 25.9184368,23.0246144 25.9610546,23.0680895 C25.9620287,23.0692839 25.9632464,23.0707171 25.964464,23.0716727 C25.9654381,23.072867 25.9668993,23.0740614 25.968117,23.0750169 C26.0124395,23.1168198 26.0725916,23.1428571 26.138832,23.1428571 L29.6990059,23.1428571 C29.8356266,23.1428571 29.9459459,23.0339305 29.9459459,22.900161 L29.9459459,22.0258815 C29.9459459,21.8921119 29.8356266,21.7831853 29.6990059,21.7831853 L27.2780681,21.7831853 L27.2780681,20.8654307 L29.6990059,20.8654307 C29.8356266,20.8654307 29.9459459,20.756743 29.9459459,20.6227346 L29.9459459,19.748694 C29.9459459,19.6146856 29.8356266,19.505759 29.6990059,19.505759 L27.2780681,19.505759 L27.2780681,18.5882432 L29.6990059,18.5882432 Z" id="Combined-Shape" fill="#FFFFFF" fill-rule="nonzero"></path>
            </g>
        </g>
    </g>
</svg>