<?xml version="1.0" encoding="UTF-8"?>
<svg width="43px" height="44px" viewBox="0 0 43 44" version="1.1" xmlns="http://www.w3.org/2000/svg" xmlns:xlink="http://www.w3.org/1999/xlink">
    <!-- Generator: Sketch 55 (78076) - https://sketchapp.com -->
    <title>outline-call-24px</title>
    <desc>Created with Sketch.</desc>
    <g id="Desktop" stroke="none" stroke-width="1" fill="none" fill-rule="evenodd">
        <g id="car-detail" transform="translate(-1058.000000, -970.000000)">
            <g id="outline-call-24px" transform="translate(1057.684682, 970.576261)">
                <polygon id="Path" points="11 10 35 10 35 34 11 34"></polygon>
                <circle id="Oval" fill="#F7B300" cx="21.8153182" cy="21.5" r="21.5"></circle>
                <path d="M17.54,15 C17.6,15.89 17.75,16.76 17.99,17.59 L16.79,18.79 C16.38,17.59 16.12,16.32 16.03,15 L17.54,15 L17.54,15 Z M27.4,27.02 C28.25,27.26 29.12,27.41 30,27.47 L30,28.96 C28.68,28.87 27.41,28.61 26.2,28.21 L27.4,27.02 L27.4,27.02 Z M18.5,13 L15,13 C14.45,13 14,13.45 14,14 C14,23.39 21.61,31 31,31 C31.55,31 32,30.55 32,30 L32,26.51 C32,25.96 31.55,25.51 31,25.51 C29.76,25.51 28.55,25.31 27.43,24.94 C27.33,24.9 27.22,24.89 27.12,24.89 C26.86,24.89 26.61,24.99 26.41,25.18 L24.21,27.38 C21.38,25.93 19.06,23.62 17.62,20.79 L19.82,18.59 C20.1,18.31 20.18,17.92 20.07,17.57 C19.7,16.45 19.5,15.25 19.5,14 C19.5,13.45 19.05,13 18.5,13 Z" id="Shape" fill="#FFFFFF" fill-rule="nonzero"></path>
            </g>
        </g>
    </g>
</svg>